<svg width="441" height="193" viewBox="0 0 441 193" fill="none" xmlns="http://www.w3.org/2000/svg">
<g clip-path="url(#clip0_1_2)">
<rect width="441" height="193" fill="transparent"/>
<path d="M37.472 188.152C32.544 188.152 28.192 187.32 24.416 185.656C20.64 183.928 17.664 181.496 15.488 178.36C13.312 175.16 12.192 171.288 12.128 166.744H25.088C25.216 169.88 26.336 172.536 28.448 174.712C30.624 176.824 33.6 177.88 37.376 177.88C40.64 177.88 43.232 177.112 45.152 175.576C47.072 173.976 48.032 171.864 48.032 169.24C48.032 166.488 47.168 164.344 45.44 162.808C43.776 161.272 41.536 160.024 38.72 159.064C35.904 158.104 32.896 157.08 29.696 155.992C24.512 154.2 20.544 151.896 17.792 149.08C15.104 146.264 13.76 142.52 13.76 137.848C13.696 133.88 14.624 130.488 16.544 127.672C18.528 124.792 21.216 122.584 24.608 121.048C28 119.448 31.904 118.648 36.32 118.648C40.8 118.648 44.736 119.448 48.128 121.048C51.584 122.648 54.272 124.888 56.192 127.768C58.176 130.648 59.232 134.072 59.36 138.04H46.208C46.144 135.672 45.216 133.592 43.424 131.8C41.696 129.944 39.264 129.016 36.128 129.016C33.44 128.952 31.168 129.624 29.312 131.032C27.52 132.376 26.624 134.36 26.624 136.984C26.624 139.224 27.328 141.016 28.736 142.36C30.144 143.64 32.064 144.728 34.496 145.624C36.928 146.52 39.712 147.48 42.848 148.504C46.176 149.656 49.216 151 51.968 152.536C54.72 154.072 56.928 156.12 58.592 158.68C60.256 161.176 61.088 164.408 61.088 168.376C61.088 171.896 60.192 175.16 58.4 178.168C56.608 181.176 53.952 183.608 50.432 185.464C46.912 187.256 42.592 188.152 37.472 188.152ZM92.7373 187C87.7453 187 83.7453 185.784 80.7373 183.352C77.7293 180.92 76.2253 176.6 76.2253 170.392V149.656H68.0653V139.384H76.2253L77.6653 126.616H88.5133V139.384H101.377V149.656H88.5133V170.488C88.5133 172.792 88.9933 174.392 89.9532 175.288C90.9773 176.12 92.7053 176.536 95.1373 176.536H101.089V187H92.7373ZM128.344 188.152C124.248 188.152 120.888 187.512 118.264 186.232C115.64 184.888 113.688 183.128 112.408 180.952C111.128 178.776 110.488 176.376 110.488 173.752C110.488 169.336 112.216 165.752 115.672 163C119.128 160.248 124.312 158.872 131.224 158.872H143.32V157.72C143.32 154.456 142.392 152.056 140.536 150.52C138.68 148.984 136.376 148.216 133.624 148.216C131.128 148.216 128.952 148.824 127.096 150.04C125.24 151.192 124.088 152.92 123.64 155.224H111.64C111.96 151.768 113.112 148.76 115.096 146.2C117.144 143.64 119.768 141.688 122.968 140.344C126.168 138.936 129.752 138.232 133.72 138.232C140.504 138.232 145.848 139.928 149.752 143.32C153.656 146.712 155.608 151.512 155.608 157.72V187H145.144L143.992 179.32C142.584 181.88 140.6 183.992 138.04 185.656C135.544 187.32 132.312 188.152 128.344 188.152ZM131.128 178.552C134.648 178.552 137.368 177.4 139.288 175.096C141.272 172.792 142.52 169.944 143.032 166.552H132.568C129.304 166.552 126.968 167.16 125.56 168.376C124.152 169.528 123.448 170.968 123.448 172.696C123.448 174.552 124.152 175.992 125.56 177.016C126.968 178.04 128.824 178.552 131.128 178.552ZM167.334 187V139.384H178.278L179.43 148.312C181.158 145.24 183.494 142.808 186.438 141.016C189.446 139.16 192.966 138.232 196.998 138.232V151.192H193.542C190.854 151.192 188.454 151.608 186.342 152.44C184.23 153.272 182.566 154.712 181.35 156.76C180.198 158.808 179.622 161.656 179.622 165.304V187H167.334ZM226.612 187C221.62 187 217.62 185.784 214.612 183.352C211.604 180.92 210.1 176.6 210.1 170.392V149.656H201.94V139.384H210.1L211.54 126.616H222.388V139.384H235.252V149.656H222.388V170.488C222.388 172.792 222.868 174.392 223.828 175.288C224.852 176.12 226.58 176.536 229.012 176.536H234.964V187H226.612ZM267.72 188.152C262.92 188.152 258.664 187.128 254.952 185.08C251.24 183.032 248.328 180.152 246.216 176.44C244.104 172.728 243.048 168.44 243.048 163.576C243.048 158.648 244.072 154.264 246.12 150.424C248.232 146.584 251.112 143.608 254.76 141.496C258.472 139.32 262.824 138.232 267.816 138.232C272.488 138.232 276.616 139.256 280.2 141.304C283.784 143.352 286.568 146.168 288.552 149.752C290.6 153.272 291.624 157.208 291.624 161.56C291.624 162.264 291.592 163 291.528 163.768C291.528 164.536 291.496 165.336 291.432 166.168H255.24C255.496 169.88 256.776 172.792 259.08 174.904C261.448 177.016 264.296 178.072 267.624 178.072C270.12 178.072 272.2 177.528 273.864 176.44C275.592 175.288 276.872 173.816 277.704 172.024H290.184C289.288 175.032 287.784 177.784 285.672 180.28C283.624 182.712 281.064 184.632 277.992 186.04C274.984 187.448 271.56 188.152 267.72 188.152ZM267.816 148.216C264.808 148.216 262.152 149.08 259.848 150.808C257.544 152.472 256.072 155.032 255.432 158.488H279.144C278.952 155.352 277.8 152.856 275.688 151C273.576 149.144 270.952 148.216 267.816 148.216ZM301.959 187V139.384H312.903L314.055 148.312C315.783 145.24 318.119 142.808 321.063 141.016C324.071 139.16 327.591 138.232 331.623 138.232V151.192H328.167C325.479 151.192 323.079 151.608 320.967 152.44C318.855 153.272 317.191 154.712 315.975 156.76C314.823 158.808 314.247 161.656 314.247 165.304V187H301.959Z" fill="black"/>
<path d="M341.458 187.672C339.218 187.672 337.362 186.968 335.89 185.56C334.482 184.152 333.778 182.456 333.778 180.472C333.778 178.424 334.482 176.696 335.89 175.288C337.362 173.88 339.218 173.176 341.458 173.176C343.698 173.176 345.522 173.88 346.93 175.288C348.402 176.696 349.138 178.424 349.138 180.472C349.138 182.456 348.402 184.152 346.93 185.56C345.522 186.968 343.698 187.672 341.458 187.672Z" fill="#00DC82"/>
<g clip-path="url(#clip1_1_2)">
<path d="M201.856 104C202.95 104 203.881 103.096 203.881 101.98V55.015C203.881 55.015 206.413 59.56 210.969 67.135L230.713 100.97C231.616 102.859 233.62 104 235.269 104H248.937V28.25H235.269C234.358 28.25 233.244 29.0045 233.244 30.27V77.74L224.131 61.58L205.906 30.775C205.019 29.2051 203.111 28.25 201.35 28.25H188.188V104H201.856Z" fill="black"/>
<path d="M378.538 49.46H385.119C386.796 49.46 388.156 48.1034 388.156 46.43V33.3H402.331V49.46H416V61.58H402.331V83.295C402.331 88.5975 404.891 90.87 409.419 90.87H416V104H407.394C395.725 104 388.156 96.461 388.156 83.8V61.58H378.538V49.46Z" fill="black"/>
<path d="M310.194 49.46V80.77C310.194 87.8419 307.532 93.8037 303.613 97.94C299.693 102.076 294.28 104 286.906 104C279.532 104 273.613 102.076 269.694 97.94C265.841 93.8037 263.113 87.8419 263.113 80.77V49.46H271.212C272.94 49.46 274.639 49.774 275.769 50.975C276.898 52.109 277.288 52.7753 277.288 54.51V80.77C277.288 84.8397 277.519 87.3536 279.313 89.355C281.106 91.2898 283.319 91.88 286.906 91.88C290.56 91.88 292.2 91.2898 293.994 89.355C295.787 87.3536 296.019 84.8397 296.019 80.77V54.51C296.019 52.7753 296.408 51.671 297.537 50.47C298.53 49.4149 299.577 49.4398 301.081 49.46C301.289 49.4628 301.884 49.46 302.094 49.46H310.194Z" fill="black"/>
<path d="M353.225 75.72L370.437 49.46H357.275C355.617 49.46 354.143 50.0537 353.225 51.48L345.125 63.6L337.531 51.985C336.614 50.5587 334.633 49.46 332.975 49.46H320.319L337.531 75.215L318.8 104H331.962C333.608 104 335.092 102.378 336.012 100.97L345.125 87.335L354.744 101.475C355.664 102.883 357.148 104 358.794 104H371.956L353.225 75.72Z" fill="black"/>
<path d="M96.05 104H152.244C154.037 104 155.753 103.372 157.306 102.485C158.859 101.598 160.46 100.486 161.356 98.95C162.253 97.4145 162.876 95.6722 162.875 93.8994C162.874 92.1265 162.254 90.3852 161.356 88.8503L123.388 23.705C122.491 22.1698 121.396 21.0564 119.844 20.17C118.291 19.2836 116.068 18.655 114.275 18.655C112.482 18.655 110.765 19.2836 109.213 20.17C107.66 21.0564 106.565 22.1698 105.669 23.705L96.05 40.37L76.8125 8.0488C75.9155 6.51373 74.8217 4.89623 73.2688 4.01C71.7158 3.12377 69.9993 3 68.2062 3C66.4132 3 64.6967 3.12377 63.1437 4.01C61.5908 4.89623 59.9908 6.51373 59.0938 8.0488L12.0125 88.8503C11.1149 90.3852 11.0008 92.1265 11 93.8994C10.9992 95.6722 11.1163 97.4142 12.0125 98.9497C12.9087 100.485 14.5095 101.598 16.0625 102.485C17.6155 103.372 19.3317 104 21.125 104H56.5625C70.6043 104 80.8245 97.7165 87.95 85.82L105.163 56.025L114.275 40.37L142.119 87.84H105.163L96.05 104ZM56.0563 87.84H31.25L68.2062 24.21L86.9375 56.025L74.5299 77.6011C69.7981 85.32 64.403 87.84 56.0563 87.84Z" fill="#00DC82"/>
</g>
</g>
<defs>
<clipPath id="clip0_1_2">
<rect width="441" height="193" fill="white"/>
</clipPath>
<clipPath id="clip1_1_2">
<rect width="405" height="101" fill="white" transform="translate(11 3)"/>
</clipPath>
</defs>
</svg>
